<svg width="396" height="460" viewBox="0 0 396 460" xmlns="http://www.w3.org/2000/svg" xmlns:xlink="http://www.w3.org/1999/xlink"><title>Calendar</title><defs><filter x="-16.4%" y="-150%" width="132.9%" height="400%" filterUnits="objectBoundingBox" id="a"><feGaussianBlur stdDeviation="16" in="SourceGraphic"/></filter><rect id="c" y="12" width="356" height="406" rx="5"/><filter x="-9.8%" y="-6.2%" width="119.7%" height="117.2%" filterUnits="objectBoundingBox" id="b"><feOffset dy="10" in="SourceAlpha" result="shadowOffsetOuter1"/><feGaussianBlur stdDeviation="10" in="shadowOffsetOuter1" result="shadowBlurOuter1"/><feColorMatrix values="0 0 0 0 0.031372549 0 0 0 0 0.211764706 0 0 0 0 0.301960784 0 0 0 0.12 0" in="shadowBlurOuter1"/></filter><linearGradient x1="61.136%" y1="97.969%" x2="61.136%" y2="0%" id="d"><stop stop-color="#77DEEE" offset="0%"/><stop stop-color="#13D0ED" offset="100%"/></linearGradient><path d="M44.017 4.973C43.79 2.226 45.845 0 48.6 0h6.006c2.76 0 4.81 2.236 4.583 4.973l-1.172 14.054C57.79 21.774 55.374 24 52.601 24h-1.996c-2.762 0-5.188-2.236-5.416-4.973L44.017 4.973z" id="e"/><path d="M297.017 4.973C296.79 2.226 298.845 0 301.6 0h6.006c2.76 0 4.81 2.236 4.583 4.973l-1.172 14.054c-.228 2.747-2.643 4.973-5.416 4.973h-1.996c-2.762 0-5.188-2.236-5.416-4.973l-1.172-14.054z" id="f"/></defs><g fill="none" fill-rule="evenodd"><g transform="translate(20 4)"><rect fill-opacity=".3" fill="#B7D3E5" filter="url(#a)" x="32" y="386" width="292" height="32" rx="8"/><use fill="#000" filter="url(#b)" xlink:href="#c"/><use fill="#FFF" xlink:href="#c"/><path d="M0 16.995A4.997 4.997 0 0 1 4.998 12h346.004A5 5 0 0 1 356 16.995V76H0V16.995z" fill="url(#d)"/><use fill="#13D0ED" xlink:href="#e"/><path stroke="#FFF" stroke-width="4" d="M42.024 5.139C41.698 1.227 44.674-2 48.6-2h6.006c3.927 0 6.901 3.233 6.576 7.139L60.01 19.193C59.695 22.98 56.41 26 52.6 26h-1.995c-3.799 0-7.095-3.03-7.41-6.807L42.026 5.14z"/><g><use fill="#13D0ED" xlink:href="#f"/><path stroke="#FFF" stroke-width="4" d="M295.024 5.139C294.698 1.227 297.674-2 301.6-2h6.006c3.927 0 6.901 3.233 6.576 7.139l-1.172 14.054c-.315 3.787-3.6 6.807-7.41 6.807h-1.995c-3.799 0-7.095-3.03-7.41-6.807l-1.17-14.054z"/></g></g><g transform="translate(44 104)"><circle fill-opacity=".947" fill="#4C4AD4" cx="154" cy="50" r="20"/><circle fill="#F56B56" cx="246" cy="50" r="16"/><circle fill="#F56B56" cx="108" cy="90" r="16"/><circle fill="#13D0ED" cx="292" cy="50" r="16"/><circle fill="#5654D7" cx="16" cy="90" r="16"/><circle fill="#F7BE14" cx="200" cy="50" r="16"/><circle fill="#F7BE14" cx="154" cy="90" r="16"/><circle fill="#13D0ED" cx="62" cy="90" r="16"/><g font-size="14" font-family="WhitneyHTF-Bold, Whitney HTF, Arial" fill="#1C3144" font-weight="bold"><text transform="translate(0 202)"><tspan x="8.041" y="13">24</tspan></text><text transform="translate(0 202)"><tspan x="54.251" y="13">25</tspan></text><text transform="translate(0 202)"><tspan x="100.16" y="13">26</tspan></text><text transform="translate(0 202)"><tspan x="146.44" y="13">27</tspan></text><text transform="translate(0 202)"><tspan x="192.013" y="13">28</tspan></text><text transform="translate(0 202)"><tspan x="238.097" y="13">29</tspan></text><text transform="translate(0 202)"><tspan x="283.747" y="13">30</tspan></text></g><g font-size="14" font-family="WhitneyHTF-Bold, Whitney HTF, Arial" fill="#1C3144" font-weight="bold"><text transform="translate(0 242)"><tspan x="13.151" y="13">1</tspan></text><text transform="translate(0 242)"><tspan x="58.136" y="13">2</tspan></text><text fill-opacity=".3" transform="translate(0 242)"><tspan x="104.185" y="13">3</tspan></text><text fill-opacity=".3" transform="translate(0 242)"><tspan x="149.73" y="13">4</tspan></text><text fill-opacity=".3" transform="translate(0 242)"><tspan x="196.115" y="13">5</tspan></text><text fill-opacity=".3" transform="translate(0 242)"><tspan x="241.961" y="13">6</tspan></text><text fill-opacity=".3" transform="translate(0 242)"><tspan x="288.213" y="13">7</tspan></text></g><g fill="#F86A60" transform="translate(0 282)"><circle cx="5" cy="6" r="5"/><text font-family="WhitneyHTF-Bold, Whitney HTF, Arial" font-size="10" font-weight="bold" letter-spacing=".5"><tspan x="18" y="10">WORST</tspan></text></g><g transform="translate(88 282)" fill="#F9B061"><circle cx="5" cy="6" r="5"/><text font-family="WhitneyHTF-Bold, Whitney HTF, Arial" font-size="10" font-weight="bold" letter-spacing=".5"><tspan x="18" y="10">AVARAGE</tspan></text></g><g transform="translate(185 282)" fill="#13D0ED"><circle cx="5" cy="6" r="5"/><text font-family="WhitneyHTF-Bold, Whitney HTF, Arial" font-size="10" font-weight="bold" letter-spacing=".5"><tspan x="18" y="10">GOOD</tspan></text></g><g transform="translate(266 282)" fill="#5654D7"><circle cx="5" cy="6" r="5"/><text font-family="WhitneyHTF-Bold, Whitney HTF, Arial" font-size="10" font-weight="bold" letter-spacing=".5"><tspan x="18" y="10">BEST</tspan></text></g><g font-size="14" font-family="WhitneyHTF-Bold, Whitney HTF, Arial" fill="#1C3144" font-weight="bold"><text transform="translate(0 121)"><tspan x="8.713" y="13">10</tspan></text><text transform="translate(0 121)"><tspan x="56.302" y="13">11</tspan></text><text transform="translate(0 121)"><tspan x="101.287" y="13">12</tspan></text><text transform="translate(0 121)"><tspan x="147.336" y="13">13</tspan></text><text transform="translate(0 121)"><tspan x="192.881" y="13">14</tspan></text><text transform="translate(0 121)"><tspan x="239.266" y="13">15</tspan></text><text transform="translate(0 121)"><tspan x="285.112" y="13">16</tspan></text></g><g font-size="14" font-family="WhitneyHTF-Bold, Whitney HTF, Arial" font-weight="bold"><text fill="#FFF" transform="translate(0 81)"><tspan x="12.185" y="13">3</tspan></text><text fill="#FFF" transform="translate(0 81)"><tspan x="57.73" y="13">4</tspan></text><text fill="#FFF" transform="translate(0 81)"><tspan x="104.115" y="13">5</tspan></text><text fill="#FFF" transform="translate(0 81)"><tspan x="149.961" y="13">6</tspan></text><text fill="#1C3144" transform="translate(0 81)"><tspan x="196.213" y="13">7</tspan></text><text fill="#1C3144" transform="translate(0 81)"><tspan x="241.877" y="13">8</tspan></text><text fill="#1C3144" transform="translate(0 81)"><tspan x="287.961" y="13">9</tspan></text></g><g font-size="14" font-family="WhitneyHTF-Bold, Whitney HTF, Arial" font-weight="bold"><text fill-opacity=".3" fill="#1C3144" transform="translate(0 42)"><tspan x="8.44" y="13">27</tspan></text><text fill-opacity=".3" fill="#1C3144" transform="translate(0 42)"><tspan x="54.013" y="13">28</tspan></text><text fill-opacity=".3" fill="#1C3144" transform="translate(0 42)"><tspan x="100.097" y="13">29</tspan></text><text fill="#FFF" transform="translate(0 42)"><tspan x="145.747" y="13">30</tspan></text><text fill="#FFF" transform="translate(0 42)"><tspan x="193.336" y="13">31</tspan></text><text fill="#FFF" transform="translate(0 42)"><tspan x="243.151" y="13">1</tspan></text><text fill="#FFF" transform="translate(0 42)"><tspan x="288.136" y="13">2</tspan></text></g><g font-size="16" font-family="WhitneyHTF-Bold, Whitney HTF, Arial" fill="#1C3144" font-weight="bold"><text><tspan x="6.072" y="15">SU</tspan></text><text><tspan x="48.992" y="15">MO</tspan></text><text><tspan x="97.624" y="15">TU</tspan></text><text><tspan x="141.8" y="15">WE</tspan></text><text><tspan x="189.472" y="15">TH</tspan></text><text><tspan x="237.056" y="15">FR</tspan></text><text><tspan x="282.064" y="15">SA</tspan></text></g><g font-size="14" font-family="WhitneyHTF-Bold, Whitney HTF, Arial" fill="#1C3144" font-weight="bold"><text transform="translate(0 162)"><tspan x="9.364" y="13">17</tspan></text><text transform="translate(0 162)"><tspan x="55.028" y="13">18</tspan></text><text transform="translate(0 162)"><tspan x="101.112" y="13">19</tspan></text><text transform="translate(0 162)"><tspan x="145.698" y="13">20</tspan></text><text transform="translate(0 162)"><tspan x="193.287" y="13">21</tspan></text><text transform="translate(0 162)"><tspan x="238.335" y="13">22</tspan></text><text transform="translate(0 162)"><tspan x="284.321" y="13">23</tspan></text></g></g><text font-family="WhitneyHTF-Bold, Whitney HTF, Arial" font-size="18" font-weight="bold" fill="#FFF" transform="translate(20 4)"><tspan x="108.552" y="51">SEPTEMBER 2017</tspan></text></g></svg>