<?xml version="1.0" encoding="UTF-8"?>
<svg width="288px" height="42px" viewBox="0 0 288 42" version="1.1" xmlns="http://www.w3.org/2000/svg" xmlns:xlink="http://www.w3.org/1999/xlink">
    <!-- Generator: Sketch 46 (44423) - http://www.bohemiancoding.com/sketch -->
    <title>Logo</title>
    <desc>Created with Sketch.</desc>
    <defs></defs>
    <g id="Press-realease" stroke="none" stroke-width="1" fill="none" fill-rule="evenodd">
        <g id="1440_Press_Release_Website_Relaunch" transform="translate(-997.000000, -2023.000000)">
            <g id="Content" transform="translate(110.000000, 97.000000)">
                <g id="About" transform="translate(45.000000, 1495.000000)">
                    <g id="Logo" transform="translate(842.000000, 430.000000)">
                        <path d="M277.6991,10.6672 C271.3911,11.1322 265.1571,12.1352 251.1201,13.0822 L230.8311,14.3592 C231.1501,15.7012 231.3911,16.8192 231.6571,17.3152 C232.7561,19.3552 236.4681,20.3602 242.3231,20.3662 C244.1201,20.3692 248.1301,20.3432 254.2601,20.3432 L250.1431,42.9042 L254.5121,42.9042 L264.6271,20.3462 C274.9521,20.3462 277.5001,20.3572 277.8271,20.3462 C282.1731,20.2132 287.8211,19.2362 287.6841,16.4672 C287.4861,12.4342 283.3981,10.1912 277.6991,10.6672" id="Fill-1" fill="#2FA9E0"></path>
                        <path d="M231.12,4.2536 L228.189,4.2426 C228.189,4.2426 229.163,8.1326 230.114,11.8256 L238.661,11.2646 L231.12,4.2536 Z" id="Fill-3" fill="#2FA9E0"></path>
                        <path d="M183.8642,42.6794 L188.1412,42.6794 L189.4142,37.3354 L195.0712,37.3354 C199.1332,37.3354 203.2352,34.7494 204.2682,30.4014 C205.4162,25.5704 202.4562,23.3534 198.3922,23.3534 L188.4582,23.3534 L183.8642,42.6794 Z M196.8942,26.8204 C199.0042,26.8204 200.3882,28.0684 199.8392,30.3714 C199.3272,32.5314 197.3292,33.8704 195.2192,33.8704 L190.2372,33.8704 L191.9102,26.8204 L196.8942,26.8204 Z" id="Fill-5" fill="#2FA9E0"></path>
                        <path d="M185.5048,23.3533 L180.6148,23.3533 L173.4318,30.4273 L169.6388,23.3533 L164.8808,23.3533 L175.9618,42.6793 L180.9138,42.6793 L180.9868,42.3693 L175.8058,33.0453 L185.4428,23.6343 L185.5048,23.3533 Z M168.2888,34.4873 L160.2018,42.3693 L160.1318,42.6793 L165.0818,42.6793 L168.5388,39.2503 C169.5268,38.2723 169.7138,36.8723 169.0128,35.6993 L168.2888,34.4873 Z" id="Fill-7" fill="#2FA9E0"></path>
                        <polygon id="Fill-9" fill="#2FA9E0" points="157.9267 42.6794 158.7577 39.1854 146.4067 39.1854 147.5127 34.5244 157.6337 34.5244 158.4637 31.0274 148.3467 31.0274 149.3377 26.8494 161.6907 26.8494 162.5187 23.3534 146.0727 23.3534 141.4817 42.6794"></polygon>
                        <polygon id="Fill-11" fill="#2FA9E0" points="220.289 42.6794 221.12 39.1854 208.769 39.1854 209.876 34.5244 219.996 34.5244 220.826 31.0274 210.71 31.0274 211.7 26.8494 224.053 26.8494 224.881 23.3534 208.435 23.3534 203.845 42.6794"></polygon>
                        <path d="M118.5483,42.6794 L127.5033,42.6794 C133.6483,42.6794 139.0433,39.2704 140.5213,33.0454 C142.0123,26.7644 138.2333,23.3804 132.0943,23.3514 L123.1373,23.3514 L118.5483,42.6794 Z M131.0863,26.8204 C134.9043,26.8204 137.0473,29.0104 136.0873,33.0454 C135.1423,37.0244 131.9643,39.2124 128.1413,39.2124 L123.6523,39.2124 L126.5913,26.8204 L131.0863,26.8204 Z" id="Fill-13" fill="#74D0F5"></path>
                        <path d="M71.5571,42.6794 L75.9011,42.6794 L78.4391,38.8144 L87.8821,38.8144 L88.5541,42.6794 L92.8941,42.6794 L89.4461,23.3534 L84.4341,23.3534 L71.5571,42.6794 Z M86.0001,27.3054 L87.5141,35.8594 L80.2391,35.8594 L86.0001,27.3054 Z" id="Fill-15" fill="#74D0F5"></path>
                        <path d="M60.6815,42.6794 L65.3265,42.6794 L78.2035,23.3534 L73.5245,23.3534 L64.1585,37.5634 L61.9705,23.3534 L57.3255,23.3534 C58.4055,29.8064 59.4775,36.2474 60.6815,42.6794 L60.6815,42.6794 Z M56.3205,32.6914 L52.5105,38.2164 L49.9285,23.3534 L45.3135,23.3534 L48.7595,42.6794 L53.4055,42.6794 L56.2145,38.6214 C56.9415,37.5744 57.1635,36.4354 56.8895,35.2184 L56.3205,32.6914 Z" id="Fill-17" fill="#74D0F5"></path>
                        <polygon id="Fill-19" fill="#74D0F5" points="39.2255 42.6794 40.0565 39.1854 27.7065 39.1854 28.8125 34.5244 38.9315 34.5244 39.7605 31.0274 29.6425 31.0274 30.6345 26.8494 42.9835 26.8494 43.8175 23.3534 27.3705 23.3534 22.7795 42.6794"></polygon>
                        <g id="Group-23" transform="translate(0.000000, 22.904300)" fill="#74D0F5">
                            <path d="M-0.0001,19.7751 L4.2779,19.7751 L5.4819,14.7111 L5.9319,12.8111 L6.6769,9.6851 L8.0459,3.9161 L13.3649,3.9161 C15.3209,3.9161 16.4919,4.9111 16.0399,6.8151 C15.6129,8.6061 13.9499,9.6851 11.9949,9.6851 L6.6769,9.6851 C8.9119,14.4351 13.0809,21.7031 19.7429,19.6171 L20.8789,16.1671 C20.1389,16.4491 19.1529,16.6191 18.4479,16.6191 C16.2799,16.6191 14.7649,14.4921 13.2299,12.7241 C16.6779,12.2441 19.7599,9.9411 20.5219,6.7271 C21.6489,1.9831 17.8259,0.4491 13.7289,0.4491 L4.5909,0.4491 L-0.0001,19.7751 Z" id="Fill-21"></path>
                        </g>
                        <path d="M95.2929,42.6794 L99.5719,42.6794 L100.7759,37.6154 L101.2259,35.7154 L101.9689,32.5894 L103.3389,26.8204 L108.6599,26.8204 C110.6149,26.8204 111.7859,27.8154 111.3329,29.7194 C110.9089,31.5104 109.2449,32.5894 107.2889,32.5894 L101.9689,32.5894 C104.2039,37.3394 108.3759,44.6074 115.0369,42.5214 L116.1709,39.0714 C115.4299,39.3534 114.4449,39.5234 113.7409,39.5234 C111.5709,39.5234 110.0599,37.3964 108.5219,35.6284 C111.9659,35.1484 115.0519,32.8454 115.8159,29.6314 C116.9439,24.8874 113.1209,23.3534 109.0239,23.3534 L99.8839,23.3534 L95.2929,42.6794 Z" id="Fill-24" fill="#74D0F5"></path>
                        <path d="M224.9071,42.6794 L229.1841,42.6794 L230.3881,37.6154 L230.8411,35.7154 L231.5841,32.5894 L232.9531,26.8204 L238.2721,26.8204 C240.2261,26.8204 241.3991,27.8154 240.9471,29.7194 C240.5201,31.5104 238.8571,32.5894 236.9011,32.5894 L231.5841,32.5894 C233.8141,37.3394 237.9861,44.6074 244.6481,42.5214 L245.7861,39.0714 C245.0461,39.3534 244.0571,39.5234 243.3531,39.5234 C241.1851,39.5234 239.6711,37.3964 238.1351,35.6284 C241.5811,35.1484 244.6651,32.8454 245.4271,29.6314 C246.5561,24.8874 242.7321,23.3534 238.6361,23.3534 L229.4981,23.3534 L224.9071,42.6794 Z" id="Fill-26" fill="#2FA9E0"></path>
                        <g id="Group-30" transform="translate(252.000000, 0.904300)" fill="#74D0F5">
                            <polygon id="Fill-28" points="10.1991 8.4978 4.1341 0.0958 0.6311 0.0958 1.8421 9.2398"></polygon>
                        </g>
                    </g>
                </g>
            </g>
        </g>
    </g>
</svg>