<?xml version="1.0" encoding="UTF-8"?>
<svg width="52px" height="52px" viewBox="0 0 52 52" version="1.1" xmlns="http://www.w3.org/2000/svg" xmlns:xlink="http://www.w3.org/1999/xlink">
    <!-- Generator: Sketch 46 (44423) - http://www.bohemiancoding.com/sketch -->
    <title>icon_re_earn</title>
    <desc>Created with Sketch.</desc>
    <defs></defs>
    <g id="Press-realease" stroke="none" stroke-width="1" fill="none" fill-rule="evenodd">
        <g id="1440_Press_Release_Website_Relaunch" transform="translate(-183.000000, -1110.000000)">
            <g id="Content" transform="translate(110.000000, 97.000000)">
                <g id="3-Primary-Features" transform="translate(45.000000, 795.000000)">
                    <g id="Group-4" transform="translate(0.000000, 60.000000)">
                        <g id="feature_1">
                            <g id="2-Shopping" transform="translate(28.000000, 158.000000)">
                                <g id="icon_re_earn">
                                    <rect id="base" x="0" y="0" width="52" height="52"></rect>
                                    <g id="shopping-cart" fill-rule="nonzero">
                                        <polygon id="Shape" fill="#D2F2DD" points="17.8856641 20.2501406 17.8856641 35.8917813 45.7662969 35.8917813 48.9035625 20.2501406"></polygon>
                                        <g id="Group" fill="#1AB549">
                                            <path d="M51.647375,11.5908203 C51.3515234,11.2297656 50.9093203,11.0203438 50.4424375,11.0203438 L19.4434297,11.0203438 L19.4434297,4.73748438 C19.4434297,4.04503125 18.9863984,3.43585938 18.3216719,3.24207813 L7.62967969,0.124617188 C6.80326563,-0.116085938 5.93896875,0.358109375 5.69826563,1.18401563 C5.45746094,2.00992188 5.93175781,2.87472656 6.75766406,3.11542969 L16.328,5.90575781 L16.328,12.5779062 L16.328,20.2499375 L16.328,35.8915781 L16.328,41.656875 C16.328,42.5172109 17.0254297,43.2146406 17.8857656,43.2146406 C17.8857656,43.2146406 23.7810625,43.2146406 23.8077734,43.2146406 C25.3537578,43.2146406 26.6117109,44.4724922 26.6117109,46.0185781 C26.6117109,47.5645625 25.3538594,48.8225156 23.8077734,48.8225156 C22.2616875,48.8225156 21.0038359,47.5646641 21.0038359,46.0185781 C21.0038359,45.1582422 20.3064062,44.4608125 19.4460703,44.4608125 C18.5857344,44.4608125 17.8883047,45.1582422 17.8883047,46.0185781 C17.8883047,49.2824922 20.5437578,51.9379453 23.8076719,51.9379453 C27.0715859,51.9379453 29.7270391,49.2824922 29.7270391,46.0185781 C29.7270391,42.7546641 27.0715859,40.0992109 23.8076719,40.0992109 C23.7810625,40.0992109 19.4434297,40.0992109 19.4434297,40.0992109 L19.4434297,37.4493438 L45.7661953,37.4493438 C46.0445781,37.4493438 46.3082344,37.3757109 46.5371563,37.2453047 C46.9185234,37.0279609 47.2022891,36.6527891 47.2935937,36.1980938 L50.4308594,20.55625 C50.4308594,20.5560469 50.4308594,20.5560469 50.4308594,20.5559453 L51.9695312,12.8842188 C52.0613437,12.4266797 51.943125,11.951875 51.647375,11.5908203 Z M48.5410859,14.1357734 L47.627125,18.692375 L19.4434297,18.692375 L19.4434297,14.1357734 L48.5410859,14.1357734 Z M19.4434297,34.3341172 L19.4434297,21.8079062 L47.0022109,21.8079062 L44.4899609,34.3341172 L19.4434297,34.3341172 L19.4434297,34.3341172 Z" id="Shape"></path>
                                            <path d="M40.5520781,40.0993125 L36.1904766,40.0993125 C35.3301406,40.0993125 34.6327109,40.7967422 34.6327109,41.6570781 C34.6327109,42.5174141 35.3301406,43.2148438 36.1904766,43.2148438 L40.5520781,43.2148438 C42.0980625,43.2148438 43.3560156,44.4726953 43.3560156,46.0187813 C43.3560156,47.5647656 42.0981641,48.8227188 40.5520781,48.8227188 C39.0060937,48.8227188 37.7481406,47.5648672 37.7481406,46.0187813 C37.7481406,45.1584453 37.0507109,44.4611172 36.190375,44.4611172 C35.3300391,44.4611172 34.6326094,45.1585469 34.6326094,46.0187813 C34.6326094,49.2826953 37.2880625,51.9381484 40.5519766,51.9381484 C43.8158906,51.9381484 46.4713437,49.2826953 46.4713437,46.0187813 C46.4713437,42.7548672 43.8158906,40.0993125 40.5520781,40.0993125 Z" id="Shape"></path>
                                            <path d="M11.2164609,18.3934766 L1.55776562,18.3934766 C0.697429688,18.3934766 0,17.6961484 0,16.8358125 C0,15.9754766 0.697429688,15.2780469 1.55776562,15.2780469 L11.2165625,15.2780469 C12.0768984,15.2780469 12.7743281,15.9754766 12.7743281,16.8358125 C12.7742266,17.6961484 12.0767969,18.3934766 11.2164609,18.3934766 Z" id="Shape"></path>
                                            <path d="M11.2164609,25.7926094 L4.67502344,25.7926094 C3.8146875,25.7926094 3.11725781,25.0951797 3.11725781,24.2348437 C3.11725781,23.3745078 3.8146875,22.6770781 4.67502344,22.6770781 L11.2164609,22.6770781 C12.0767969,22.6770781 12.7742266,23.3745078 12.7742266,24.2348437 C12.7742266,25.0951797 12.0767969,25.7926094 11.2164609,25.7926094 Z" id="Shape"></path>
                                            <path d="M11.2164609,33.1918437 L7.79248437,33.1918437 C6.93214844,33.1918437 6.23471875,32.4944141 6.23471875,31.6341797 C6.23471875,30.7738438 6.93214844,30.0764141 7.79248437,30.0764141 L11.2164609,30.0764141 C12.0767969,30.0764141 12.7742266,30.7738438 12.7742266,31.6341797 C12.7742266,32.4944141 12.0767969,33.1918437 11.2164609,33.1918437 Z" id="Shape"></path>
                                        </g>
                                    </g>
                                </g>
                            </g>
                        </g>
                    </g>
                </g>
            </g>
        </g>
    </g>
</svg>