<?xml version="1.0" encoding="UTF-8"?>
<svg width="52px" height="49px" viewBox="0 0 52 49" version="1.1" xmlns="http://www.w3.org/2000/svg" xmlns:xlink="http://www.w3.org/1999/xlink">
    <!-- Generator: Sketch 46 (44423) - http://www.bohemiancoding.com/sketch -->
    <title>icon_re_travel</title>
    <desc>Created with Sketch.</desc>
    <defs></defs>
    <g id="Press-realease" stroke="none" stroke-width="1" fill="none" fill-rule="evenodd">
        <g id="1440_Press_Release_Website_Relaunch" transform="translate(-183.000000, -1214.000000)">
            <g id="Content" transform="translate(110.000000, 97.000000)">
                <g id="3-Primary-Features" transform="translate(45.000000, 795.000000)">
                    <g id="Group-4" transform="translate(0.000000, 60.000000)">
                        <g id="feature_1">
                            <g id="3-Travel" transform="translate(28.000000, 260.000000)">
                                <g id="icon_re_travel">
                                    <rect id="base" x="0" y="0" width="52" height="52"></rect>
                                    <g id="cells" transform="translate(0.000000, 2.000000)" fill-rule="nonzero">
                                        <g id="Group" transform="translate(6.703125, 3.847107)" fill="#297AD7">
                                            <path d="M23.5259375,36.6532149 C22.8788828,36.6532149 22.2939844,36.2099876 22.14225,35.5548657 L18.6479922,20.4711674 C18.4712734,19.7087314 18.9482109,18.9479153 19.7131797,18.7718595 C20.4781484,18.5957025 21.2412891,19.071124 21.4180078,19.8335599 L24.9122656,34.9172583 C25.0889844,35.6796942 24.6120469,36.4405103 23.8470781,36.6165661 C23.7394219,36.6412686 23.6317656,36.6532149 23.5259375,36.6532149 Z" id="Shape"></path>
                                            <path d="M1.46270313,34.449531 C1.05675781,34.449531 0.65365625,34.2771198 0.37253125,33.9427252 C-0.131625,33.3430826 -0.0527109375,32.4493388 0.548945313,31.9467851 L3.52107031,29.4639835 C4.12272656,28.961126 5.01932031,29.0401942 5.52357813,29.6398368 C6.02773438,30.2394793 5.94882031,31.1332231 5.34716406,31.6357769 L2.37503906,34.1185785 C2.10864063,34.3410021 1.78465625,34.449531 1.46270313,34.449531 Z" id="Shape"></path>
                                            <path d="M8.25794531,28.5503967 C7.86103906,28.5503967 7.46646875,28.385781 7.18554687,28.0639401 C6.67001562,27.473814 6.73196875,26.5789566 7.32397656,26.0649628 L29.9543359,6.41879752 C30.5463437,5.9050062 31.4440547,5.9667624 31.9596875,6.55678719 C32.4752188,7.14691322 32.4132656,8.04177066 31.8212578,8.55576446 L9.19079687,28.2019298 C8.92155469,28.4355909 8.5889375,28.5503967 8.25794531,28.5503967 Z" id="Shape"></path>
                                            <path d="M21.9654297,23.495095 C21.5704531,23.495095 21.1775078,23.3319979 20.8965859,23.0127893 L2.75772656,2.40980785 C2.23996094,1.82180785 2.29846094,0.926444215 2.88853906,0.41042562 C3.47851562,-0.105694215 4.37663281,-0.0473801653 4.89439844,0.540822314 L23.0332578,21.1438037 C23.551125,21.7318037 23.4925234,22.6271674 22.9024453,23.143186 C22.6326953,23.3791756 22.2983516,23.495095 21.9654297,23.495095 Z" id="Shape"></path>
                                            <path d="M42.7025625,20.5615744 L33.6479609,20.5615744 C32.8628828,20.5615744 32.2265937,19.9271054 32.2265937,19.1447252 C32.2265937,18.362345 32.8629844,17.727876 33.6479609,17.727876 L42.7025625,17.727876 C43.4876406,17.727876 44.1239297,18.362345 44.1239297,19.1447252 C44.1239297,19.9271054 43.4875391,20.5615744 42.7025625,20.5615744 Z" id="Shape"></path>
                                        </g>
                                        <ellipse id="Oval" fill="#D5E7F8" cx="25.9461719" cy="22.9915289" rx="9.2990625" ry="9.26950413"></ellipse>
                                        <path d="M25.9464766,33.677781 C20.0354375,33.677781 15.2264531,28.8840826 15.2264531,22.9918326 C15.2264531,17.0995826 20.0354375,12.3058843 25.9464766,12.3058843 C31.8575156,12.3058843 36.6665,17.0995826 36.6665,22.9918326 C36.6665,28.8840826 31.8574141,33.677781 25.9464766,33.677781 Z M25.9464766,15.1395826 C21.6029531,15.1395826 18.0691875,18.6619132 18.0691875,22.9918326 C18.0691875,27.3217521 21.6029531,30.8440826 25.9464766,30.8440826 C30.29,30.8440826 33.8237656,27.3217521 33.8237656,22.9918326 C33.8237656,18.6619132 30.29,15.1395826 25.9464766,15.1395826 Z" id="Shape" fill="#297AD7"></path>
                                        <ellipse id="Oval" fill="#D5E7F8" cx="10.53" cy="5.32216942" rx="3.8634375" ry="3.85115702"></ellipse>
                                        <g id="Group" transform="translate(5.179688, 0.000000)" fill="#297AD7">
                                            <path d="M5.3495,10.5906818 C2.43516406,10.5906818 0.0642890625,8.22734298 0.0642890625,5.32227066 C0.0642890625,2.41719835 2.43516406,0.0537582645 5.3495,0.0537582645 C8.26383594,0.0537582645 10.6348125,2.41729959 10.6348125,5.32227066 C10.6348125,8.22724174 8.26373438,10.5906818 5.3495,10.5906818 Z M5.3495,2.88755785 C4.00267969,2.88755785 2.907125,3.97983264 2.907125,5.3223719 C2.907125,6.66491116 4.00278125,7.75698347 5.3495,7.75698347 C6.69632031,7.75698347 7.79207813,6.66480992 7.79207813,5.3223719 C7.79207813,3.97993388 6.69621875,2.88755785 5.3495,2.88755785 Z" id="Shape"></path>
                                            <path d="M25.987,48.9462417 C22.8772578,48.9462417 20.3473359,46.4243616 20.3473359,43.3245041 C20.3473359,40.2246467 22.8772578,37.7027665 25.987,37.7027665 C29.0967422,37.7027665 31.6266641,40.2246467 31.6266641,43.3245041 C31.6266641,46.4243616 29.0967422,48.9462417 25.987,48.9462417 Z M25.987,40.5364649 C24.4447734,40.5364649 23.1900703,41.7871798 23.1900703,43.3245041 C23.1900703,44.8618285 24.4447734,46.1125434 25.987,46.1125434 C27.5292266,46.1125434 28.7839297,44.8618285 28.7839297,43.3245041 C28.7839297,41.7871798 27.5292266,40.5364649 25.987,40.5364649 Z" id="Shape"></path>
                                            <path d="M34.5445547,13.507093 C32.1957187,13.507093 30.2847187,11.6022686 30.2847187,9.26079752 C30.2847187,6.91932645 32.1956172,5.01450207 34.5445547,5.01450207 C36.8934922,5.01450207 38.8043906,6.91932645 38.8043906,9.26079752 C38.8043906,11.6022686 36.8933906,13.507093 34.5445547,13.507093 Z M34.5445547,7.84850413 C33.7632344,7.84850413 33.1275547,8.48216322 33.1275547,9.261 C33.1275547,10.0398368 33.7632344,10.6734959 34.5445547,10.6734959 C35.325875,10.6734959 35.9615547,10.0398368 35.9615547,9.261 C35.9615547,8.48216322 35.325875,7.84850413 34.5445547,7.84850413 Z" id="Shape"></path>
                                        </g>
                                        <ellipse id="Oval" fill="#D5E7F8" cx="47.06" cy="22.9915289" rx="3.51914062" ry="3.50795455"></ellipse>
                                        <path d="M47.0594922,27.9166364 C44.3352813,27.9166364 42.1189844,25.7074855 42.1189844,22.9918326 C42.1189844,20.276281 44.3352813,18.0670289 47.0594922,18.0670289 C49.7837031,18.0670289 52,20.2761798 52,22.9918326 C52,25.7073843 49.7838047,27.9166364 47.0594922,27.9166364 Z M47.0594922,20.9007273 C45.9027969,20.9007273 44.9618203,21.8387128 44.9618203,22.9917314 C44.9618203,24.14475 45.9027969,25.0827355 47.0594922,25.0827355 C48.2161875,25.0827355 49.1571641,24.14475 49.1571641,22.9917314 C49.1571641,21.8387128 48.2162891,20.9007273 47.0594922,20.9007273 Z" id="Shape" fill="#297AD7"></path>
                                        <ellipse id="Oval" fill="#D5E7F8" cx="5.28429688" cy="39.6009091" rx="3.8634375" ry="3.85115702"></ellipse>
                                        <path d="M5.2853125,44.8697252 C2.37107812,44.8697252 0,42.5061839 0,39.601314 C0,36.6964442 2.37107812,34.3328017 5.2853125,34.3328017 C8.19954687,34.3328017 10.570625,36.696343 10.570625,39.601314 C10.570625,42.5063864 8.19964844,44.8697252 5.2853125,44.8697252 Z M5.2853125,37.1666012 C3.93839063,37.1666012 2.84273438,38.258876 2.84273438,39.6014153 C2.84273438,40.9439545 3.93839063,42.0361281 5.2853125,42.0361281 C6.63223438,42.0361281 7.72789063,40.9438533 7.72789063,39.6014153 C7.72789063,38.258876 6.63213281,37.1666012 5.2853125,37.1666012 Z" id="Shape" fill="#297AD7"></path>
                                    </g>
                                </g>
                            </g>
                        </g>
                    </g>
                </g>
            </g>
        </g>
    </g>
</svg>