<?xml version="1.0" encoding="UTF-8"?>
<svg width="52px" height="48px" viewBox="0 0 52 48" version="1.1" xmlns="http://www.w3.org/2000/svg" xmlns:xlink="http://www.w3.org/1999/xlink">
    <!-- Generator: Sketch 46 (44423) - http://www.bohemiancoding.com/sketch -->
    <title>icon_re_trip</title>
    <desc>Created with Sketch.</desc>
    <defs></defs>
    <g id="Press-realease" stroke="none" stroke-width="1" fill="none" fill-rule="evenodd">
        <g id="1440_Press_Release_Website_Relaunch" transform="translate(-183.000000, -1010.000000)">
            <g id="Content" transform="translate(110.000000, 97.000000)">
                <g id="3-Primary-Features" transform="translate(45.000000, 795.000000)">
                    <g id="Group-4" transform="translate(0.000000, 60.000000)">
                        <g id="feature_1">
                            <g id="1-Trip" transform="translate(28.000000, 56.000000)">
                                <g id="icon_re_trip">
                                    <rect id="base" x="0" y="0" width="52" height="52"></rect>
                                    <path d="M34.2648516,5.28232911 C34.2648516,5.17883544 34.2540859,5.07787342 34.2364141,4.97944304 L37.8307109,3.69458228 C38.7199922,3.38481013 39.6990547,3.47939241 40.5124688,3.95159494 L42.7378047,5.24627848 C43.684875,5.79736709 44.8487813,5.8284557 45.8244922,5.32982278 L48.2292891,4.10177215 C48.6035469,3.91129114 49.0483906,3.92779747 49.4052813,4.14602532 C49.7636953,4.36324051 49.9812422,4.75129114 49.9812422,5.16870886 L49.9812422,14.0473924 C49.9812422,14.4972152 49.7274375,14.9096709 49.3267734,15.1147342 L45.8244922,16.9031899 C44.8488828,17.4018228 43.684875,17.3705316 42.7378047,16.819443 L40.5124688,15.5250633 C39.6993594,15.0528608 38.7199922,14.9585823 37.8307109,15.2677468 C37.8307109,15.2677468 34.9611641,16.0970127 34.26475,16.0501266 L34.26475,5.28232911 L34.2648516,5.28232911 Z" id="Shape" fill="#FFF1CE" fill-rule="nonzero"></path>
                                    <g id="Group" transform="translate(0.000000, 2.000000)" fill-rule="nonzero" fill="#FF9F04">
                                        <path d="M44.3578281,16.7081519 C43.5313125,16.7082532 42.7173906,16.4887089 42.0039141,16.0736203 L39.7786797,14.7793418 C39.3393203,14.5240506 38.7923047,14.4714937 38.3101875,14.6387848 C38.2857109,14.6473924 38.2611328,14.6550886 38.23625,14.6622785 C37.3606797,14.9153418 35.2269531,15.5042025 34.3270078,15.5042025 C34.2693203,15.5042025 34.2158984,15.5021772 34.1665391,15.4989367 C33.4019766,15.4473924 32.8083438,14.8139747 32.8083438,14.0500253 L32.8083438,3.28232911 C32.8083438,3.27858228 32.8079375,3.26389873 32.8028594,3.23483544 C32.6779375,2.53721519 33.0759609,1.85164557 33.7449531,1.61255696 L37.33925,0.327696203 C37.8472656,0.150683544 38.3658438,0.0629873418 38.8917344,0.0629873418 C39.7173359,0.0629873418 40.5313594,0.282126582 41.2453438,0.696708861 L43.4718984,1.99210127 C43.9799141,2.28759494 44.6360078,2.30562025 45.1601719,2.03756962 L47.5654766,0.80921519 C47.9406484,0.618126582 48.3595938,0.517468354 48.7785391,0.517468354 C49.2687813,0.517468354 49.7487656,0.652556962 50.1665938,0.907848101 C50.948625,1.38177215 51.43775,2.24921519 51.43775,3.16850633 L51.43775,12.0471899 C51.43775,13.0460759 50.883625,13.9500759 49.9917031,14.406481 L46.4885078,16.1952405 C45.8326172,16.5309367 45.0957813,16.7081519 44.3578281,16.7081519 Z M38.8913281,11.6364557 C39.7175391,11.6364557 40.5316641,11.8555949 41.2455469,12.2702785 L43.4717969,13.5651646 C43.9803203,13.860962 44.6364141,13.8787848 45.1601719,13.6109367 L48.5250391,11.8927595 L48.5250391,3.58248101 L46.4887109,4.62237975 C45.8326172,4.95777215 45.0956797,5.13508861 44.3579297,5.13508861 C43.5314141,5.13508861 42.7174922,4.91564557 42.0041172,4.50055696 L39.7787813,3.20587342 C39.3395234,2.95098734 38.7927109,2.89792405 38.3113047,3.06562025 L35.7214609,3.99149367 L35.7214609,12.3253671 C36.2588281,12.1949367 36.8641406,12.0346329 37.3920625,11.8826329 C37.8758047,11.7191899 38.3801641,11.6364557 38.8913281,11.6364557 Z" id="Shape"></path>
                                        <path d="M34.1650156,20.9577722 C33.3608438,20.9577722 32.7086094,20.3075443 32.7086094,19.5056203 L32.7086094,3.01721519 C32.7086094,2.21539241 33.3607422,1.56506329 34.1650156,1.56506329 C34.9691875,1.56506329 35.6214219,2.21529114 35.6214219,3.01721519 L35.6214219,19.5056203 C35.6213203,20.3075443 34.9691875,20.9577722 34.1650156,20.9577722 Z" id="Shape"></path>
                                        <path d="M47.7513359,47.9369114 L4.25201562,47.9369114 C2.75528906,47.9369114 1.39790625,47.1750886 0.621257812,45.899038 C-0.15559375,44.6225823 -0.206882813,43.0699747 0.484351562,41.7457215 L16.0666797,11.9228354 C16.5344766,11.0277468 17.4537188,10.4716962 18.4660938,10.4716962 L18.4661953,10.4716962 C19.4785703,10.4716962 20.3978125,11.0278481 20.8654062,11.9229367 L34.2738906,37.5882532 C34.6454063,38.2995443 34.3682422,39.1766076 33.6550703,39.547038 C32.9416953,39.9175696 32.0620625,39.6410127 31.6905469,38.9300253 L18.4660937,13.6166076 L3.06779687,43.0869873 C2.75498437,43.6863797 2.99396094,44.1994937 3.11136719,44.3922025 C3.22857031,44.5847089 3.57439062,45.0327089 4.25211719,45.0327089 L47.7515391,45.0327089 C48.4733438,45.0327089 48.815,44.5410633 48.9284453,44.3296203 C49.0417891,44.1181772 49.2623828,43.5619241 48.8617188,42.9631392 L34.1551641,20.9897722 L32.6564063,23.2290633 C32.2098359,23.8962025 31.305625,24.0757468 30.6365313,23.6309873 C29.9674375,23.1857215 29.7870625,22.2841519 30.2334297,21.6170127 L32.943625,17.5675949 C33.2137813,17.1639494 33.6684766,16.921519 34.1550625,16.921519 C34.6416484,16.921519 35.0963438,17.1638481 35.3665,17.5675949 L51.2843906,41.3510886 C52.1555938,42.6530633 52.2371484,44.3190886 51.4967578,45.6993418 C50.7563672,47.0795949 49.3210859,47.9369114 47.7513359,47.9369114 Z" id="Shape"></path>
                                    </g>
                                    <path d="M10.5333516,27.6554937 L9.51376562,29.5476456 L18.3489922,25.0803038 L27.1842187,29.5476456 L25.7277109,26.3732658 L19.5739375,14.5938228 C19.1071562,13.7004557 17.8252344,13.7003544 17.3583516,14.5937215 L10.5333516,27.6554937 Z" id="Shape" fill="#FFF1CE" fill-rule="nonzero"></path>
                                    <path d="M9.51417187,30.9997975 C9.13067187,30.9997975 8.75265625,30.8489114 8.47173437,30.5621266 C8.02729687,30.1081519 7.92969531,29.4191392 8.23082812,28.8602532 L9.24594531,26.9765063 L16.0667812,13.9226329 C16.5345781,13.0275443 17.4538203,12.4714937 18.4661953,12.4714937 C19.4785703,12.4714937 20.3979141,13.0276456 20.8657109,13.9229367 L27.0194844,25.7022785 C27.0309609,25.7242532 27.0419297,25.7465316 27.0522891,25.7691139 L28.4708125,28.8606582 C28.5811094,29.0651139 28.6436719,29.299038 28.6436719,29.5473418 C28.6436719,30.3453165 27.9980391,30.9931139 27.19925,30.9994937 C26.9726641,31.0001013 26.7392734,30.9505823 26.5257891,30.8425316 L18.3491953,26.7081519 L10.1725,30.8425316 C9.96328125,30.9483544 9.73771094,30.9997975 9.51417187,30.9997975 Z M18.3489922,23.6282532 C18.5748672,23.6282532 18.8007422,23.6805063 19.0077266,23.7852152 L24.0710234,26.3453165 L18.4660937,15.6166076 L12.9439375,26.1852152 L17.6904609,23.7853165 C17.8973438,23.6805063 18.1231172,23.6282532 18.3489922,23.6282532 Z" id="Shape" fill="#FF9F04" fill-rule="nonzero"></path>
                                </g>
                            </g>
                        </g>
                    </g>
                </g>
            </g>
        </g>
    </g>
</svg>