<svg width="288" height="42" viewBox="0 0 288 42" xmlns="http://www.w3.org/2000/svg"><title>Logo</title><g fill="none" fill-rule="evenodd"><path d="M277.7 9.667c-6.309.465-12.543 1.468-26.58 2.415l-20.289 1.277c.32 1.342.56 2.46.826 2.956 1.1 2.04 4.811 3.045 10.666 3.051 1.797.003 5.807-.023 11.937-.023l-4.117 22.561h4.37l10.114-22.558c10.325 0 12.873.011 13.2 0 4.346-.133 9.994-1.11 9.857-3.879-.198-4.033-4.286-6.276-9.985-5.8M231.12 3.254l-2.931-.011s.974 3.89 1.925 7.583l8.547-.561-7.541-7.011zM183.864 41.68h4.277l1.273-5.345h5.657c4.062 0 8.164-2.586 9.197-6.934 1.148-4.83-1.812-7.048-5.876-7.048h-9.934l-4.594 19.326zm13.03-15.86c2.11 0 3.494 1.248 2.945 3.551-.512 2.16-2.51 3.5-4.62 3.5h-4.982l1.673-7.05h4.984zM185.505 22.353h-4.89l-7.183 7.074-3.793-7.074h-4.758l11.08 19.326h4.953l.073-.31-5.181-9.324 9.637-9.41.062-.282zm-17.216 11.134l-8.087 7.882-.07.31h4.95l3.457-3.429c.988-.978 1.175-2.378.474-3.55l-.724-1.213zM157.927 41.68l.83-3.495h-12.35l1.106-4.66h10.12l.83-3.498h-10.116l.99-4.178h12.354l.828-3.496h-16.446l-4.591 19.326zM220.289 41.68l.831-3.495h-12.351l1.107-4.66h10.12l.83-3.498H210.71l.99-4.178h12.353l.828-3.496h-16.446l-4.59 19.326z" fill="#2FA9E0"/><path d="M118.548 41.68h8.955c6.145 0 11.54-3.41 13.018-9.635 1.491-6.28-2.288-9.665-8.427-9.694h-8.957l-4.589 19.328zm12.538-15.86c3.818 0 5.961 2.19 5.001 6.225-.945 3.98-4.123 6.167-7.946 6.167h-4.489l2.94-12.392h4.494zM71.557 41.68h4.344l2.538-3.866h9.443l.672 3.865h4.34l-3.448-19.326h-5.012L71.557 41.68zM86 26.304l1.514 8.554H80.24L86 26.305zM60.681 41.68h4.645l12.878-19.327h-4.68l-9.365 14.21-2.189-14.21h-4.645c1.08 6.453 2.152 12.894 3.356 19.326zm-4.36-9.989l-3.81 5.525-2.583-14.863h-4.614L48.76 41.68h4.646l2.809-4.058c.726-1.047.948-2.186.674-3.403l-.569-2.527zM39.225 41.68l.831-3.495h-12.35l1.107-4.66h10.119l.828-3.498H29.643l.991-4.178h12.35l.834-3.496H27.37L22.78 41.68zM0 41.68h4.278l1.204-5.065.45-1.9.745-3.126 1.369-5.769h5.319c1.956 0 3.127.995 2.675 2.9-.427 1.79-2.09 2.87-4.045 2.87H6.677c2.235 4.75 6.404 12.017 13.066 9.931l1.136-3.45a7.57 7.57 0 0 1-2.431.452c-2.168 0-3.683-2.127-5.218-3.895 3.448-.48 6.53-2.783 7.292-5.997 1.127-4.744-2.696-6.278-6.793-6.278H4.59L0 41.68zM95.293 41.68h4.279l1.204-5.065.45-1.9.743-3.126 1.37-5.769h5.32c1.956 0 3.127.995 2.674 2.9-.424 1.79-2.088 2.87-4.044 2.87h-5.32c2.235 4.75 6.407 12.017 13.068 9.931l1.134-3.45a7.574 7.574 0 0 1-2.43.452c-2.17 0-3.681-2.127-5.22-3.895 3.445-.48 6.53-2.783 7.295-5.997 1.128-4.744-2.695-6.278-6.792-6.278h-9.14L95.293 41.68z" fill="#74D0F5"/><path d="M224.907 41.68h4.277l1.204-5.065.453-1.9.743-3.126 1.37-5.769h5.318c1.954 0 3.127.995 2.675 2.9-.427 1.79-2.09 2.87-4.046 2.87h-5.317c2.23 4.75 6.402 12.017 13.064 9.931l1.138-3.45a7.587 7.587 0 0 1-2.433.452c-2.168 0-3.682-2.127-5.218-3.895 3.446-.48 6.53-2.783 7.292-5.997 1.13-4.744-2.695-6.278-6.79-6.278h-9.139l-4.59 19.326z" fill="#2FA9E0"/><path d="M262.2 8.402L256.133 0h-3.503l1.211 9.144z" fill="#74D0F5"/></g></svg>