<svg width="52" height="52" viewBox="0 0 52 52" xmlns="http://www.w3.org/2000/svg"><title>icon_re_earn</title><g fill="none" fill-rule="evenodd"><path d="M0 0h52v52H0z"/><g fill-rule="nonzero"><path fill="#D2F2DD" d="M17.886 20.25v15.642h27.88l3.138-15.642z"/><g fill="#1AB549"><path d="M51.647 11.59a1.558 1.558 0 0 0-1.205-.57H19.443V4.737c0-.692-.457-1.301-1.121-1.495L7.63.125a1.557 1.557 0 1 0-.872 2.99l9.57 2.79V41.658c0 .86.697 1.558 1.558 1.558h5.922a2.807 2.807 0 0 1 2.804 2.804 2.807 2.807 0 0 1-2.804 2.804 2.807 2.807 0 0 1-2.804-2.804 1.558 1.558 0 1 0-3.116 0 5.926 5.926 0 0 0 5.92 5.919 5.926 5.926 0 0 0 5.919-5.92 5.926 5.926 0 0 0-5.92-5.919h-4.364v-2.65h26.323a1.554 1.554 0 0 0 1.528-1.25l3.137-15.643 1.539-7.672a1.558 1.558 0 0 0-.323-1.293zm-3.106 2.546l-.914 4.556H19.443v-4.556h29.098zM19.443 34.334V21.808h27.56L44.49 34.334H19.443z"/><path d="M40.552 40.1H36.19a1.558 1.558 0 1 0 0 3.115h4.362a2.807 2.807 0 0 1 2.804 2.804 2.807 2.807 0 0 1-2.804 2.804 2.807 2.807 0 0 1-2.804-2.804 1.558 1.558 0 0 0-3.115 0 5.926 5.926 0 0 0 5.919 5.92 5.926 5.926 0 0 0 5.92-5.92 5.926 5.926 0 0 0-5.92-5.92zM11.216 18.393H1.558a1.558 1.558 0 1 1 0-3.115h9.659a1.558 1.558 0 1 1 0 3.115zM11.216 25.793H4.675a1.558 1.558 0 1 1 0-3.116h6.541a1.558 1.558 0 1 1 0 3.116zM11.216 33.192H7.792a1.558 1.558 0 1 1 0-3.116h3.424a1.558 1.558 0 1 1 0 3.116z"/></g></g></g></svg>