<svg width="52" height="49" viewBox="0 0 52 49" xmlns="http://www.w3.org/2000/svg"><title>icon_re_travel</title><g fill="none" fill-rule="evenodd"><path d="M0-2h52v52H0z"/><g fill-rule="nonzero"><g fill="#297AD7"><path d="M30.23 40.5a1.42 1.42 0 0 1-1.385-1.098l-3.494-15.084a1.422 1.422 0 0 1 2.77-.638l3.494 15.084A1.417 1.417 0 0 1 30.23 40.5zM8.166 38.297a1.42 1.42 0 0 1-1.09-.507 1.414 1.414 0 0 1 .176-1.996l2.972-2.483a1.425 1.425 0 0 1 2.003.176c.504.6.425 1.493-.177 1.996l-2.972 2.483a1.42 1.42 0 0 1-.912.33z"/><path d="M14.961 32.398c-.397 0-.791-.165-1.072-.487a1.414 1.414 0 0 1 .138-1.999l22.63-19.646a1.425 1.425 0 0 1 2.006.138c.515.59.453 1.485-.139 1.999l-22.63 19.646a1.42 1.42 0 0 1-.933.349z"/><path d="M28.669 27.342a1.42 1.42 0 0 1-1.07-.482L9.462 6.257a1.414 1.414 0 0 1 .13-2 1.424 1.424 0 0 1 2.007.13l18.138 20.604a1.419 1.419 0 1 1-1.068 2.351zM49.406 24.409H40.35a1.42 1.42 0 0 1-1.421-1.417 1.42 1.42 0 0 1 1.421-1.417h9.055a1.42 1.42 0 0 1 1.421 1.417 1.42 1.42 0 0 1-1.421 1.417z"/></g><ellipse fill="#D5E7F8" cx="25.946" cy="22.992" rx="9.299" ry="9.27"/><path d="M25.946 33.678c-5.91 0-10.72-4.794-10.72-10.686s4.81-10.686 10.72-10.686c5.912 0 10.72 4.794 10.72 10.686s-4.809 10.686-10.72 10.686zm0-18.538c-4.343 0-7.877 3.522-7.877 7.852s3.534 7.852 7.877 7.852c4.344 0 7.878-3.522 7.878-7.852s-3.534-7.852-7.878-7.852z" fill="#297AD7"/><ellipse fill="#D5E7F8" cx="10.53" cy="5.322" rx="3.863" ry="3.851"/><g fill="#297AD7"><path d="M10.53 10.59c-2.915 0-5.286-2.363-5.286-5.268S7.614.054 10.529.054s5.286 2.363 5.286 5.268-2.372 5.269-5.286 5.269zm0-7.702a2.441 2.441 0 0 0-2.443 2.434 2.441 2.441 0 0 0 2.442 2.435 2.441 2.441 0 0 0 2.443-2.435 2.442 2.442 0 0 0-2.443-2.434zM31.167 48.946c-3.11 0-5.64-2.522-5.64-5.621 0-3.1 2.53-5.622 5.64-5.622s5.64 2.522 5.64 5.622-2.53 5.621-5.64 5.621zm0-8.41a2.796 2.796 0 0 0-2.797 2.789 2.796 2.796 0 0 0 2.797 2.788 2.796 2.796 0 0 0 2.797-2.788 2.796 2.796 0 0 0-2.797-2.789zM39.724 13.507c-2.349 0-4.26-1.905-4.26-4.246 0-2.342 1.911-4.246 4.26-4.246 2.35 0 4.26 1.904 4.26 4.246 0 2.341-1.91 4.246-4.26 4.246zm0-5.658c-.781 0-1.417.633-1.417 1.412a1.416 1.416 0 0 0 2.834 0c0-.779-.635-1.412-1.417-1.412z"/></g><ellipse fill="#D5E7F8" cx="47.06" cy="22.992" rx="3.519" ry="3.508"/><path d="M47.06 27.917c-2.725 0-4.941-2.21-4.941-4.925 0-2.716 2.216-4.925 4.94-4.925 2.725 0 4.941 2.21 4.941 4.925s-2.216 4.925-4.94 4.925zm0-7.016a2.097 2.097 0 0 0-2.098 2.09 2.097 2.097 0 1 0 4.195 0c0-1.152-.94-2.09-2.098-2.09z" fill="#297AD7"/><ellipse fill="#D5E7F8" cx="5.284" cy="39.601" rx="3.863" ry="3.851"/><path d="M5.285 44.87C2.371 44.87 0 42.506 0 39.6c0-2.905 2.371-5.268 5.285-5.268 2.915 0 5.286 2.363 5.286 5.268S8.2 44.87 5.285 44.87zm0-7.703A2.441 2.441 0 0 0 2.843 39.6a2.441 2.441 0 0 0 2.442 2.435 2.441 2.441 0 0 0 2.443-2.435 2.441 2.441 0 0 0-2.443-2.434z" fill="#297AD7"/></g></g></svg>