<svg width="52" height="48" viewBox="0 0 52 48" xmlns="http://www.w3.org/2000/svg"><title>icon_re_trip</title><g fill="none" fill-rule="evenodd"><path d="M0-2h52v52H0z"/><path d="M34.265 3.282c0-.103-.01-.204-.029-.303l3.595-1.284a3.227 3.227 0 0 1 2.681.257l2.226 1.294a3.223 3.223 0 0 0 3.086.084l2.405-1.228a1.205 1.205 0 0 1 1.752 1.067v8.878a1.2 1.2 0 0 1-.654 1.068l-3.503 1.788a3.223 3.223 0 0 1-3.086-.084l-2.226-1.294a3.229 3.229 0 0 0-2.681-.257s-2.87.829-3.566.782V3.282z" fill="#FFF1CE" fill-rule="nonzero"/><g fill-rule="nonzero" fill="#FF9F04"><path d="M44.358 16.708c-.827 0-1.64-.22-2.354-.634l-2.225-1.295a1.788 1.788 0 0 0-1.469-.14l-.074.023c-.875.253-3.009.842-3.909.842-.058 0-.111-.002-.16-.005a1.454 1.454 0 0 1-1.359-1.449V3.282c0-.003 0-.018-.005-.047a1.451 1.451 0 0 1 .942-1.622L37.339.328a4.691 4.691 0 0 1 3.906.369l2.227 1.295a1.792 1.792 0 0 0 1.688.046L47.565.809a2.661 2.661 0 0 1 2.601.099 2.66 2.66 0 0 1 1.272 2.26v8.88a2.64 2.64 0 0 1-1.446 2.358l-3.503 1.79a4.697 4.697 0 0 1-2.131.512zm-5.467-5.072c.827 0 1.64.22 2.355.634l2.226 1.295a1.792 1.792 0 0 0 1.688.046l3.365-1.718v-8.31l-2.036 1.04a4.685 4.685 0 0 1-4.485-.122L39.78 3.206a1.785 1.785 0 0 0-1.468-.14l-2.59.925v8.334c.538-.13 1.143-.29 1.671-.442a4.674 4.674 0 0 1 1.5-.247z"/><path d="M34.165 20.958c-.804 0-1.456-.65-1.456-1.452V3.017c0-.802.652-1.452 1.456-1.452.804 0 1.456.65 1.456 1.452v16.489c0 .802-.652 1.452-1.456 1.452z"/><path d="M47.751 47.937H4.252a4.219 4.219 0 0 1-3.63-2.038 4.194 4.194 0 0 1-.138-4.153l15.583-29.823a2.698 2.698 0 0 1 2.4-1.451c1.012 0 1.93.556 2.398 1.45l13.409 25.666a1.45 1.45 0 0 1-.619 1.959 1.459 1.459 0 0 1-1.964-.617L18.466 13.617 3.068 43.087c-.313.6-.074 1.112.043 1.305.118.193.463.64 1.141.64h43.5c.721 0 1.063-.49 1.176-.702a1.3 1.3 0 0 0-.066-1.367L34.155 20.99l-1.499 2.24a1.46 1.46 0 0 1-2.02.401 1.45 1.45 0 0 1-.403-2.014l2.71-4.05a1.458 1.458 0 0 1 2.424 0l15.917 23.784a4.218 4.218 0 0 1 .213 4.348 4.242 4.242 0 0 1-3.746 2.238z"/></g><path d="M10.533 25.655l-1.02 1.893 8.836-4.468 8.835 4.468-1.456-3.175-6.154-11.78c-.467-.893-1.749-.893-2.216 0l-6.825 13.062z" fill="#FFF1CE" fill-rule="nonzero"/><path d="M9.514 29c-.383 0-.761-.151-1.042-.438a1.45 1.45 0 0 1-.241-1.702l1.015-1.883 6.82-13.054a2.698 2.698 0 0 1 2.4-1.452c1.013 0 1.932.557 2.4 1.452l6.153 11.78c.012.021.023.044.033.066l1.419 3.092A1.454 1.454 0 0 1 27.199 29c-.226 0-.46-.05-.673-.157l-8.177-4.135-8.177 4.135c-.209.105-.434.157-.658.157zm8.835-7.372c.226 0 .452.053.659.157l5.063 2.56-5.605-10.728-5.522 10.568 4.746-2.4c.207-.104.433-.157.659-.157z" fill="#FF9F04" fill-rule="nonzero"/></g></svg>